<?xml version="1.0" encoding="UTF-8" standalone="no"?>
<svg
   xmlns:dc="http://purl.org/dc/elements/1.1/"
   xmlns:cc="http://creativecommons.org/ns#"
   xmlns:rdf="http://www.w3.org/1999/02/22-rdf-syntax-ns#"
   xmlns:svg="http://www.w3.org/2000/svg"
   xmlns="http://www.w3.org/2000/svg"
   xmlns:sodipodi="http://sodipodi.sourceforge.net/DTD/sodipodi-0.dtd"
   xmlns:inkscape="http://www.inkscape.org/namespaces/inkscape"
   version="1.1"
   width="708.66138"
   height="708.66138"
   id="svg28"
   viewBox="0 0 708.66138 708.66138"
   sodipodi:docname="ППФК лого new1.cdr">
  <metadata
     id="metadata34">
    <rdf:RDF>
      <cc:Work
         rdf:about="">
        <dc:format>image/svg+xml</dc:format>
        <dc:type
           rdf:resource="http://purl.org/dc/dcmitype/StillImage" />
      </cc:Work>
    </rdf:RDF>
  </metadata>
  <defs
     id="defs32" />
  <sodipodi:namedview
     pagecolor="#ffffff"
     bordercolor="#666666"
     borderopacity="1"
     objecttolerance="10"
     gridtolerance="10"
     guidetolerance="10"
     inkscape:pageopacity="0"
     inkscape:pageshadow="2"
     inkscape:window-width="640"
     inkscape:window-height="480"
     id="namedview30" />
  <g
     id="Layer1000">
    <path
       d="M 354.3307,0 A 354.3307,354.3307 0 0 1 708.6614,354.3307 354.3307,354.3307 0 1 1 354.3307,0 Z"
       style="fill:#c55b3b;fill-rule:evenodd"
       id="path2" />
    <g
       id="Layer1001">
      <path
         d="M 354.3307,41.233 A 313.0977,313.0977 0 0 1 667.4284,354.3307 313.0977,313.0977 0 1 1 354.3307,41.233 Z"
         style="fill:#cb9953;fill-rule:evenodd"
         id="path4" />
      <path
         d="m 354.3307,675.9323 c -88.8069,0 -169.2076,-35.9972 -227.406,-94.1955 C 68.7263,523.5384 32.7291,443.1379 32.7291,354.3307 c 0,-88.8069 35.9972,-169.2076 94.1956,-227.406 58.1984,-58.1984 138.5991,-94.1956 227.406,-94.1956 88.8069,0 169.2077,35.9972 227.4061,94.1956 58.1983,58.1984 94.1955,138.5991 94.1955,227.406 0,88.8072 -35.9972,169.2077 -94.1955,227.4061 -58.1984,58.1983 -138.5995,94.1955 -227.4061,94.1955 z m 0,-8.5039 c -172.919,0 -313.0977,-140.1786 -313.0977,-313.0977 0,-172.919 140.1787,-313.0977 313.0977,-313.0977 172.9191,0 313.0977,140.1787 313.0977,313.0977 0,172.9191 -140.1786,313.0977 -313.0977,313.0977 z"
         style="fill:#ffffff;fill-rule:evenodd"
         id="path6" />
    </g>
    <path
       d="M 354.3307,55.2265 A 299.1042,299.1042 0 0 1 653.4349,354.3307 299.1042,299.1042 0 1 1 354.3307,55.2265 Z"
       style="fill:#ffffff;fill-rule:evenodd"
       id="path9" />
    <path
       d="m 354.3307,640.542 c 158.0879,0 286.2437,-128.1412 286.2437,-286.2113 0,-11.5951 -1.8956,-24.1174 -2.9798,-35.0184 l -34.8174,6.1393 c 1.0899,9.4774 1.6693,19.1098 1.6693,28.8791 0,138.1351 -111.9807,250.1158 -250.1158,250.1158 -138.1351,0 -250.1158,-111.9807 -250.1158,-250.1158 0,-9.7826 0.5808,-19.4284 1.6736,-28.9182 l -34.5943,-6.1002 c -1.4066,11.5036 -3.2071,23.1339 -3.2071,35.0184 0,158.0701 128.1557,286.2113 286.2436,286.2113 z M 637.5946,319.3123 c -0.0184,-0.1882 0.0983,-0.6559 -0.1267,-0.7191 z"
       style="fill:#1d68ad;fill-rule:evenodd"
       id="path11" />
    <path
       d="m 354.3307,604.4465 c -138.1351,0 -250.1158,-111.9807 -250.1158,-250.1158 0,-9.7826 0.5808,-19.4284 1.6736,-28.9182 l -34.5943,-6.1002 7.2385,-41.0527 35.5655,6.2714 c 4.0402,-13.9306 9.2605,-27.3595 15.5432,-40.1724 l -30.7021,-17.7256 20.8432,-36.1012 31.2755,18.0573 c 9.0028,-12.5354 19.1358,-24.2045 30.251,-34.8568 l -23.1763,-27.6205 31.9334,-26.7953 23.6336,28.1656 c 12.8361,-8.7452 26.5257,-16.3301 40.9232,-22.5955 l -12.0804,-33.1909 39.172,-14.2574 12.4058,34.0849 c 12.801,-3.1643 25.988,-5.3501 39.4812,-6.4573 V 68.9343 h 41.686 v 36.1471 c 13.4876,1.1197 26.6709,3.3098 39.4654,6.4849 l 12.4214,-34.128 39.172,14.2574 -12.1113,33.2759 c 14.3793,6.2736 28.0556,13.8572 40.875,22.6049 l 23.7126,-28.26 31.9335,26.7953 -23.2793,27.7433 c 11.0926,10.6466 21.2097,22.3021 30.1944,34.8258 l 31.4351,-18.1491 20.8431,36.1012 -30.8877,17.8331 c 6.2657,12.7942 11.482,26.1958 15.5129,40.1028 l 35.7814,-6.3093 7.2386,41.0527 -34.8174,6.1393 c 1.0899,9.4774 1.6693,19.1098 1.6693,28.8791 0,138.1351 -111.9807,250.1158 -250.1158,250.1158 z"
       style="fill:#c35c3a;fill-rule:evenodd"
       id="path13" />
    <path
       d="m 354.3307,564.342 c -115.9858,0 -210.0112,-94.0255 -210.0112,-210.0113 0,-115.9858 94.0254,-210.0112 210.0112,-210.0112 115.9858,0 210.0113,94.0254 210.0113,210.0112 0,115.9858 -94.0255,210.0113 -210.0113,210.0113 z m 0,-9.9188 c -110.5081,0 -200.0925,-89.5844 -200.0925,-200.0925 0,-110.5081 89.5844,-200.0925 200.0925,-200.0925 110.5081,0 200.0925,89.5844 200.0925,200.0925 0,110.5081 -89.5844,200.0925 -200.0925,200.0925 z"
       style="fill:#ffffff;fill-rule:evenodd"
       id="path15" />
    <path
       d="M 354.3307,154.2381 A 200.0926,200.0926 0 0 1 554.4233,354.3307 200.0926,200.0926 0 1 1 354.3307,154.2381 Z"
       style="fill:#cb9953;fill-rule:evenodd"
       id="path17" />
    <path
       d="m 354.3307,491.8014 c -56.9299,0 -105.7771,-34.6059 -126.6539,-83.9293 l -7.526,2.9335 0.684,1.755 c 1.1653,2.9894 -0.3274,6.3887 -3.3166,7.5537 l -19.6886,7.6743 c -2.9891,1.1653 -6.3887,-0.3272 -7.5537,-3.3166 l -4.5216,-11.5996 c -1.165,-2.9894 0.3277,-6.3887 3.3168,-7.5538 l 19.6886,-7.6742 c 2.9892,-1.1651 6.3888,0.3271 7.5538,3.3165 l 0.6843,1.7555 7.56,-2.9469 c -3.1873,-9.1032 -5.4473,-18.642 -6.662,-28.5043 l -8.1031,0.7653 0.1772,1.8751 c 0.3016,3.1944 -2.0654,6.0546 -5.2592,6.3564 l -21.0378,1.9871 c -3.1938,0.3016 -6.0546,-2.065 -6.3562,-5.2591 l -1.1707,-12.3945 c -0.3016,-3.1943 2.0653,-6.0548 5.2591,-6.3564 l 21.0379,-1.9871 c 3.1938,-0.3016 6.0545,2.0651 6.3561,5.2591 l 0.1772,1.8757 8.1303,-0.7679 c -0.1635,-2.7419 -0.2466,-5.5054 -0.2466,-8.2882 0,-7.122 0.5417,-14.1174 1.586,-20.9477 l -7.9928,-1.482 -0.3433,1.8522 c -0.5848,3.1546 -3.6448,5.2571 -6.7992,4.6723 l -20.7774,-3.8523 c -3.1544,-0.5848 -5.2571,-3.6445 -4.6723,-6.7992 l 2.2694,-12.2411 c 0.5851,-3.1547 3.6451,-5.2571 6.7995,-4.6723 l 20.7771,3.8523 c 3.1544,0.5847 5.2574,3.6445 4.6723,6.7991 l -0.3433,1.8525 8.0039,1.4839 c 2.1147,-9.6758 5.2487,-18.97 9.2827,-27.7656 l -7.2409,-3.5949 -0.8376,1.6872 c -1.4267,2.8737 -4.9456,4.0575 -7.8191,2.6308 l -18.9272,-9.3966 c -2.8735,-1.4267 -4.0575,-4.9453 -2.6308,-7.8191 l 5.536,-11.1512 c 1.4267,-2.8737 4.9456,-4.0575 7.8191,-2.6308 l 18.9272,9.3966 c 2.8735,1.4266 4.0578,4.9453 2.6309,7.819 l -0.8377,1.6875 7.2482,3.5986 c 4.6548,-8.6556 10.2118,-16.7533 16.5422,-24.1713 l -5.944,-5.4091 -1.268,1.3932 c -2.1594,2.3729 -5.868,2.5475 -8.2406,0.3884 l -15.6291,-14.2223 c -2.3726,-2.1591 -2.5475,-5.8677 -0.3883,-8.2406 l 8.3792,-9.208 c 2.1594,-2.3729 5.868,-2.5475 8.2409,-0.3884 l 15.6288,14.2226 c 2.3726,2.1591 2.5478,5.8677 0.3884,8.2406 l -1.268,1.3932 5.942,5.4074 c 6.8023,-7.026 14.349,-13.3263 22.5099,-18.7787 l -4.1709,-6.7275 -1.601,0.9927 c -2.7269,1.6906 -6.3414,0.8425 -8.0317,-1.8842 l -11.135,-17.9597 c -1.6903,-2.7267 -0.8428,-6.3411 1.8842,-8.0317 l 10.5809,-6.5602 c 2.7269,-1.6906 6.3413,-0.8425 8.0319,1.8842 l 11.1348,17.9594 c 1.6906,2.7267 0.843,6.3414 -1.8839,8.032 l -1.6013,0.9927 4.1598,6.7093 c 8.4161,-4.8841 17.398,-8.8999 26.8234,-11.927 l -2.1248,-7.4606 -1.8116,0.516 c -3.0858,0.879 -6.3298,-0.9267 -7.2085,-4.0122 l -5.789,-20.323 c -0.8787,-3.0855 0.9267,-6.3295 4.0125,-7.2085 l 11.9732,-3.4106 c 3.0858,-0.8788 6.3295,0.9269 7.2086,4.0124 l 5.7889,20.323 c 0.8787,3.0855 -0.9267,6.3295 -4.0125,7.2085 l -1.8119,0.5159 2.1218,7.4489 c 9.3568,-2.3604 19.0955,-3.761 29.1058,-4.0907 v -7.6456 h -1.8839 c -3.2085,0 -5.8337,-2.6255 -5.8337,-5.8337 v -21.1314 c 0,-3.208 2.6252,-5.8335 5.8337,-5.8335 h 12.4495 c 3.2085,0 5.8337,2.6255 5.8337,5.8335 v 21.1314 c 0,3.2082 -2.6252,5.8337 -5.8337,5.8337 h -1.8836 v 7.6345 c 10.0196,0.292 19.7674,1.6628 29.1376,3.9901 l 2.09,-7.3372 -1.812,-0.5159 c -3.0857,-0.879 -4.8911,-4.123 -4.0124,-7.2085 l 5.7889,-20.323 c 0.879,-3.0855 4.1227,-4.8912 7.2085,-4.0124 l 11.9733,3.4106 c 3.0858,0.879 4.8912,4.123 4.0124,7.2085 l -5.7889,20.323 c -0.8787,3.0855 -4.1227,4.8912 -7.2085,4.0122 l -1.8116,-0.516 -2.0838,7.3154 c 9.4567,2.9968 18.4697,6.99 26.9176,11.8542 l 4.0246,-6.4913 -1.6013,-0.9927 c -2.7269,-1.6906 -3.5745,-5.3053 -1.8839,-8.032 l 11.1348,-17.9594 c 1.6905,-2.7267 5.305,-3.5748 8.0319,-1.8842 l 10.5809,6.5602 c 2.7269,1.6906 3.5745,5.305 1.8842,8.0317 l -11.1351,17.9597 c -1.6903,2.7267 -5.3047,3.5748 -8.0316,1.8842 l -1.6011,-0.9927 -4.0198,6.4837 c 8.2066,5.4414 15.7947,11.7405 22.6367,18.7696 l 5.6642,-5.1545 -1.268,-1.3932 c -2.1594,-2.3729 -1.9842,-6.0815 0.3884,-8.2406 l 15.6288,-14.2226 c 2.3729,-2.1591 6.0814,-1.9845 8.2409,0.3884 l 8.3792,9.208 c 2.1591,2.3729 1.9842,6.0815 -0.3884,8.2406 l -15.6291,14.2223 c -2.3726,2.1591 -6.0811,1.9845 -8.2406,-0.3884 l -1.2679,-1.3932 -5.6503,5.1421 c 6.3771,7.4307 11.9738,15.5505 16.6637,24.2319 l 6.833,-3.3922 -0.838,-1.6875 c -1.4266,-2.8737 -0.2423,-6.3924 2.6312,-7.819 l 18.9272,-9.3966 c 2.8734,-1.4267 6.3924,-0.2429 7.8191,2.6308 l 5.536,11.1512 c 1.4267,2.8738 0.2427,6.3924 -2.6308,7.8191 l -18.9272,9.3966 c -2.8735,1.4267 -6.3924,0.2429 -7.8191,-2.6308 l -0.8377,-1.6872 -6.8113,3.3814 c 4.0702,8.8294 7.2317,18.1641 9.3642,27.8844 l 7.4928,-1.3892 -0.3432,-1.8525 c -0.5851,-3.1546 1.5179,-6.2144 4.6723,-6.7991 l 20.7771,-3.8523 c 3.1544,-0.5848 6.2144,1.5176 6.7995,4.6723 l 2.2694,12.2411 c 0.5848,3.1547 -1.518,6.2144 -4.6723,6.7992 l -20.7774,3.8523 c -3.1544,0.5848 -6.2144,-1.5177 -6.7992,-4.6723 l -0.3433,-1.8522 -7.4854,1.3879 c 1.0544,6.8598 1.6024,13.8866 1.6024,21.0418 0,2.8001 -0.0924,5.578 -0.2588,8.3364 l 7.6187,0.7197 0.1771,-1.8757 c 0.3016,-3.194 3.1624,-5.5607 6.3562,-5.2591 l 21.0378,1.9871 c 3.1938,0.3016 5.5608,3.1621 5.2592,6.3564 l -1.1707,12.3945 c -0.3017,3.1941 -3.1624,5.5607 -6.3562,5.2591 l -21.0379,-1.9871 c -3.1938,-0.3018 -5.5607,-3.162 -5.2591,-6.3564 l 0.1772,-1.8751 -7.5878,-0.7166 c -1.2212,9.9111 -3.5036,19.4925 -6.7195,28.6342 l 7.1022,2.7683 0.6843,-1.7555 c 1.165,-2.9894 4.5646,-4.4816 7.5537,-3.3165 l 19.6886,7.6742 c 2.9892,1.1651 4.4819,4.5644 3.3168,7.5538 l -4.5215,11.5996 c -1.165,2.9894 -4.5646,4.4819 -7.5538,3.3166 l -19.6886,-7.6743 c -2.9891,-1.165 -4.4818,-4.5643 -3.3165,-7.5537 l 0.684,-1.755 -7.0849,-2.7615 c -20.9166,49.2307 -69.7088,83.7573 -126.5712,83.7573 z m 0,-18.4093 c -65.7558,0 -119.0613,-53.3055 -119.0613,-119.0614 0,-65.7558 53.3055,-119.0613 119.0613,-119.0613 65.7559,0 119.0614,53.3055 119.0614,119.0613 0,65.7559 -53.3055,119.0614 -119.0614,119.0614 z"
       style="fill:#ffffff;fill-rule:evenodd"
       id="path19" />
    <path
       d="M 354.3307,235.2694 A 119.0613,119.0613 0 0 1 473.392,354.3307 119.0613,119.0613 0 1 1 354.3307,235.2694 Z"
       style="fill:#1d68ad;fill-rule:evenodd"
       id="path21" />
    <path
       d="m 494.7966,510.4883 c -1.6963,0.4476 -3.4763,0.6866 -5.3098,0.6866 H 219.1675 c -1.8084,0 -3.5646,-0.2323 -5.2402,-0.6679 l -35.7239,80.6519 c 0.5745,0.6322 1.4535,1.2127 2.4789,1.667 0.9788,0.4335 1.9809,0.6853 2.8586,0.6853 h 341.5726 c 0.9146,0 1.9265,-0.2501 2.887,-0.6798 1.0008,-0.4475 1.8717,-1.0314 2.4619,-1.6798 z M 489.4868,320.097 H 219.1675 c -1.6492,0 -3.1544,0.6802 -4.2499,1.7757 -1.0956,1.0955 -1.7758,2.6008 -1.7758,4.25 V 490.288 c 0,1.6492 0.6807,3.1545 1.7758,4.2495 1.0955,1.0956 2.6007,1.7758 4.2499,1.7758 h 270.3193 c 1.6492,0 3.1545,-0.6802 4.25,-1.7758 1.0951,-1.095 1.7757,-2.6003 1.7757,-4.2495 V 326.1227 c 0,-1.6492 -0.6802,-3.1545 -1.7757,-4.25 -1.0955,-1.0955 -2.6008,-1.7757 -4.25,-1.7757 z"
       style="fill:#ffffff;fill-rule:evenodd"
       id="path23" />
    <path
       d="m 219.1674,305.2352 h 270.3195 c 5.7512,0 10.9755,2.3479 14.7574,6.1299 3.782,3.782 6.13,9.0063 6.13,14.7575 V 490.288 c 0,3.2145 -0.7334,6.2634 -2.0404,8.9886 0.0683,0.1335 0.1332,0.2696 0.1953,0.4082 l 37.7702,85.4127 c 0.9321,2.0826 1.3592,4.1536 1.3592,6.1722 0,4.1094 -1.6854,7.8542 -4.3939,10.9573 -2.2085,2.5293 -5.1699,4.6352 -8.3642,6.063 -3.1187,1.3949 -6.5381,2.2059 -9.7869,2.2059 H 183.5408 c -3.2466,0 -6.6269,-0.7871 -9.6923,-2.1452 -3.2008,-1.4176 -6.1871,-3.5362 -8.4342,-6.1022 -2.7178,-3.1033 -4.4112,-6.8587 -4.4112,-10.9873 0,-2.0322 0.4147,-4.0904 1.3186,-6.1305 l 37.9758,-85.7359 0.0388,-0.085 c -1.317,-2.7332 -2.0562,-5.7949 -2.0562,-9.0218 V 326.1226 c 0,-5.7512 2.3479,-10.9755 6.1299,-14.7575 3.782,-3.782 9.0062,-6.1299 14.7574,-6.1299 z m -15.7252,281.0293 c 4.1573,-10.6052 8.3132,-21.2247 12.4713,-31.8362 4.1556,-10.6055 8.3143,-21.2241 12.441,-31.8361 16.9013,-0.0134 33.8026,-0.027 50.7042,-0.0403 -2.5489,10.6189 -5.129,21.2443 -7.7074,31.8563 -2.5798,10.6186 -5.1585,21.2443 -7.7375,31.8563 -5.5834,0 -11.1665,0 -16.7802,0 2.4276,-8.4384 4.8257,-16.8902 7.2218,-25.3221 2.3978,-8.4382 4.7639,-16.8906 7.1612,-25.3358 -7.7984,0.007 -15.5662,0.0136 -23.3343,0.0136 -2.9432,8.4452 -5.8722,16.8959 -8.8299,25.329 -2.9591,8.4367 -5.917,16.8837 -8.8906,25.3153 -5.5834,0 -11.1665,0 -16.7196,0 z m 74.4633,0 c 2.215,-10.612 4.4139,-21.2414 6.615,-31.8631 2.1985,-10.6089 4.3996,-21.2442 6.5846,-31.8631 16.9013,-0.0133 33.8026,-0.0269 50.7345,-0.0403 -0.6069,10.6322 -1.2445,21.2644 -1.8511,31.8833 -0.6069,10.6254 -1.2441,21.2578 -1.851,31.8832 -5.5831,0 -11.1968,0 -16.78,0 0.8496,-8.4452 1.7147,-16.9024 2.549,-25.3423 0.8345,-8.4435 1.6687,-16.9041 2.4879,-25.3491 -7.7981,0 -15.5661,0.007 -23.3339,0.007 -1.3961,8.452 -2.776,16.9018 -4.1876,25.3493 -1.41,8.4359 -2.7916,16.8971 -4.1874,25.3355 -5.5831,0 -11.1968,0 -16.78,0 z m 103.4414,1.7025 c -0.152,-2.5772 -0.2733,-5.1545 -0.3946,-7.7386 -9.4065,-0.121 -17.1054,-2.6183 -23.0003,-7.5636 -2.9047,-2.437 -5.0502,-5.2906 -6.4026,-8.5057 -1.3479,-3.2043 -1.9086,-6.8102 -1.7904,-10.7736 0.1244,-4.1721 0.9247,-7.8744 2.2759,-11.1169 1.349,-3.2375 3.3341,-5.9936 5.8867,-8.3376 5.0029,-4.5938 11.7732,-7.0925 20.4514,-7.4021 -0.091,-1.9247 -0.1819,-3.8423 -0.2729,-5.7671 4.6729,-0.007 9.3761,-0.007 14.049,-0.0133 0.182,1.9244 0.3337,3.8492 0.5159,5.7668 8.739,0.303 15.8548,2.7774 21.5136,7.382 2.8675,2.3332 5.2364,5.1018 7.0699,8.3378 1.8377,3.244 3.1215,6.952 3.8233,11.1235 0.6633,3.9438 0.5596,7.5205 -0.3336,10.7197 -0.8969,3.2134 -2.6444,6.0829 -5.1888,8.5258 -5.1934,4.9861 -12.623,7.5033 -22.0901,7.6243 0.2426,2.5841 0.4856,5.1614 0.7282,7.7386 -5.6137,0 -11.2272,0 -16.8406,0 z m -1.0318,-20.8 c -0.2124,-4.5961 -0.4099,-9.1931 -0.6373,-13.7815 -0.2273,-4.5902 -0.4549,-9.1922 -0.6675,-13.7883 -4.6729,0.4238 -8.0918,1.8595 -10.2561,4.2865 -2.1744,2.4381 -3.266,5.6325 -3.2164,9.5891 0.1017,8.1085 5.0068,12.6714 14.7773,13.6942 z m 15.991,-0.007 c 9.6492,-1.0228 13.9462,-5.5905 12.9263,-13.7075 -0.4969,-3.9552 -2.0577,-7.1663 -4.5513,-9.5894 -2.5126,-2.4417 -6.0993,-3.8556 -10.8329,-4.2797 0.3946,4.6029 0.8045,9.2072 1.2138,13.7951 0.4096,4.5904 0.8192,9.1922 1.2441,13.7815 z m 44.9388,19.1043 c -2.0937,-10.6322 -4.157,-21.2779 -6.2507,-31.9101 -2.0936,-10.6322 -4.157,-21.278 -6.2506,-31.917 4.6119,-0.007 9.2545,-0.007 13.8668,-0.0133 1.0318,4.3336 2.05,8.6706 3.0648,12.9875 1.0179,4.3299 2.033,8.6604 3.0648,12.9807 0.091,0 0.182,0 0.273,0 2.6702,-4.3269 5.3334,-8.6477 7.768,-12.9875 2.42,-4.3138 4.7336,-8.6607 7.0093,-12.9943 5.8563,-0.007 11.7431,-0.0134 17.6598,-0.0134 -2.5486,4.9057 -5.1834,9.8317 -8.0107,14.7169 -2.8471,4.9193 -5.9168,9.7977 -9.0726,14.6968 6.4633,5.7467 13.1074,11.5243 19.9055,17.227 6.8868,5.7773 14.0491,11.4869 21.3315,17.2202 -7.3128,0.006 -14.5953,0.006 -21.8778,0.006 -5.7653,-4.8988 -11.3975,-9.7769 -16.8709,-14.6965 -5.4199,-4.8713 -10.7113,-9.7979 -15.9001,-14.6968 -0.091,0 -0.1517,0 -0.182,0 1.1529,4.8989 2.3054,9.8048 3.4591,14.7034 1.152,4.8923 2.306,9.7911 3.4895,14.6899 -5.4922,0 -10.9843,0 -16.4767,0 z M 298.9726,471.8937 297.5417,456.5262 287.445,463.7684 Z M 223.7573,329.2948 h 130.5697 130.57 c 0.7827,0 1.4174,0.6347 1.4174,1.4174 v 154.9853 c 0,0.7827 -0.6347,1.4174 -1.4174,1.4174 H 354.327 223.7573 c -0.7827,0 -1.4173,-0.6347 -1.4173,-1.4174 V 330.7122 c 0,-0.7827 0.6346,-1.4174 1.4173,-1.4174 z m 131.987,2.8347 V 484.2802 H 483.4797 V 332.1295 Z m -2.8346,0 H 225.1746 v 152.1507 h 127.7351 z m 91.2291,56.7499 c 0,-6.7697 -2.7439,-12.8988 -7.1799,-17.3347 -4.4359,-4.436 -10.565,-7.1799 -17.3344,-7.1799 -0.542,0 -0.8972,0.004 -1.0701,0.0116 -6.3836,0.2818 -12.2714,3.0835 -16.5699,7.3735 -4.2398,4.2315 -6.8992,9.911 -6.8992,16.02 0,0.4921 0.003,0.8036 0.008,0.9334 0.477,10.8006 4.4796,15.4089 8.2873,19.793 4.6151,5.3135 9.004,10.3663 9.004,22.2012 l -0.002,0.2486 0.1202,5e-4 v -20.0537 -2.0503 -7.3221 l 0.8175,-3e-4 c 0.04,-0.1366 0.0771,-0.2724 0.11,-0.4071 0.0941,-0.3863 0.1511,-0.7594 0.133,-1.1035 -0.023,-0.4297 -0.1792,-0.8841 -0.5531,-1.9718 -0.2171,-0.6312 -0.5071,-1.4737 -0.9195,-2.7595 -0.3958,-1.2331 -0.8793,-2.8018 -1.3904,-4.4597 -0.891,-2.89 -1.8661,-6.0526 -2.5804,-8.1052 -0.9845,-2.8298 -1.4573,-3.5126 -1.7056,-3.8712 l -0.0936,-0.1381 c -0.204,-0.3152 -0.2865,-0.5947 -0.1819,-0.892 0.0986,-0.2807 0.3364,-0.4808 0.7653,-0.6265 0.2982,-0.1012 0.7314,-0.1925 1.2784,-0.2679 0.5131,-0.0703 1.1342,-0.1289 1.8451,-0.1695 0.7639,-0.0439 1.6475,-0.0683 2.4667,-0.0842 -0.1244,-0.4189 -0.246,-0.8521 -0.3668,-1.2846 -0.0751,-0.2719 0.0845,-0.5536 0.3563,-0.6288 0.2719,-0.0748 0.5536,0.0845 0.6288,0.3564 0.1474,0.5278 0.295,1.0561 0.4427,1.5397 l 0.1888,-0.002 0.0128,-3e-4 c 0.1729,-0.0896 0.3767,-0.1006 0.5944,-0.0714 0.0802,0.0107 0.1627,0.0297 0.2458,0.0558 l 0.6868,-0.0127 c 0.4334,-0.0102 0.7982,-0.0193 1.4267,-0.0216 0.5111,-0.002 1.1897,6e-4 1.9219,0.0267 0.7528,0.0269 1.5644,0.0779 2.3207,0.1723 0.9601,0.1196 1.8581,0.3098 2.641,0.4927 0.1514,-0.2004 0.3297,-0.3535 0.5264,-0.436 l 0.0372,-0.0139 c 0.2245,-0.0845 0.4501,-0.0777 0.6604,-0.009 -0.0402,-0.5805 -0.108,-1.2112 -0.1763,-1.8428 -0.005,-0.0297 -0.008,-0.0601 -0.008,-0.0918 0,-0.2832 0.2296,-0.5128 0.5125,-0.5128 0.2764,0 0.502,0.2194 0.5122,0.4935 0.1114,1.0301 0.222,2.0594 0.218,2.9282 0.3787,0.0717 0.6525,0.1134 0.8274,0.14 l 0.003,6e-4 c 0.2123,0.032 0.2126,0.032 0.4297,-0.0221 l 1.7453,-0.4346 c 0.8144,-0.2032 1.7844,-0.445 2.7799,-0.4107 0.5046,0.0176 1.0001,0.106 1.4281,0.2095 0.4201,0.1017 0.7744,0.2183 1.0066,0.2956 0.5545,0.1854 0.8147,0.2778 0.5094,1.1937 -0.1412,0.4241 -0.4785,1.1449 -1.1163,2.5098 l -0.1704,0.3645 c -1.3135,2.812 -4.2933,9.235 -6.0406,13.0028 l -0.1193,0.2571 c -1.6299,3.5139 -1.9789,4.2665 -1.9678,4.9842 0.006,0.3577 0.0955,0.7458 0.2273,1.1477 0.0524,0.1599 0.1108,0.3204 0.1729,0.4814 h 0.8949 v 7.3221 h 6e-4 v 22.1596 l 0.5714,0.002 -0.005,-0.307 c 0,-9.3124 4.4858,-15.8219 9.0513,-22.4467 3.9804,-5.7762 8.0334,-11.6575 8.0334,-19.3714 z m -29.7575,12.6408 h 2.431 v -5.7847 h -1.1143 c -0.2829,0 -0.5126,-0.2296 -0.5126,-0.5128 v -0.9487 c 0,-0.2829 0.2297,-0.5125 0.5126,-0.5125 h 0.8348 c -0.2509,-1.7507 -0.5315,-3.5686 -1.1061,-6.0506 -0.252,-1.0885 -0.5684,-2.3354 -0.8782,-3.5558 -0.4646,-1.8328 -0.915,-3.6073 -1.1341,-4.8157 l -0.0664,-0.3974 c -0.1876,-0.3413 -0.3631,-0.7748 -0.5312,-1.2623 -0.8782,0.0153 -1.8677,0.0394 -2.7329,0.0896 -0.6837,0.0391 -1.2778,0.0946 -1.7651,0.1618 -0.4779,0.0655 -0.8456,0.1418 -1.0859,0.2234 -0.0173,0.006 -0.0321,0.009 -0.0446,0.009 l 0.0672,0.098 c 0.2753,0.398 0.8,1.1554 1.8301,4.1154 0.7211,2.0721 1.6988,5.2435 2.592,8.1416 0.5128,1.664 0.9983,3.2383 1.3861,4.447 0.3731,1.1625 0.6837,2.0654 0.9156,2.7397 0.4048,1.1778 0.5743,1.6696 0.6052,2.2521 0.0241,0.4539 -0.0451,0.9219 -0.1607,1.3958 z m 1.4329,-23.8949 c 0.0334,0.0581 0.0635,0.1173 0.0901,0.1783 0.1449,0.3296 0.1831,0.6919 0.1318,1.0207 -0.0558,0.3577 -0.2199,0.6851 -0.4731,0.9057 -0.0479,0.0419 -0.0958,0.0782 -0.1423,0.108 -0.2378,0.1525 -0.5235,0.2211 -0.8305,0.1664 0.2361,1.082 0.5896,2.4746 0.9516,3.9027 0.307,1.2098 0.6208,2.4466 0.8821,3.5754 0.6007,2.5942 0.8838,4.464 1.1429,6.279 h 3.6973 c 0.6845,-2.8522 1.3671,-5.6988 1.9839,-8.3534 0.3008,-1.2935 0.5749,-2.4985 0.8065,-3.5572 0.1088,-0.4975 0.2066,-0.9562 0.2914,-1.3683 l -0.0836,-9e-4 c -0.3223,-0.0133 -0.6333,-0.1451 -0.853,-0.3809 l -0.0553,-0.0635 c -0.1811,-0.2262 -0.2735,-0.5174 -0.2984,-0.83 -0.0253,-0.3121 0.0173,-0.6574 0.1012,-0.9737 -0.6994,-0.159 -1.4862,-0.3189 -2.3276,-0.4238 -0.748,-0.0933 -1.5242,-0.1426 -2.2325,-0.1681 -0.7288,-0.0258 -1.3882,-0.0283 -1.8814,-0.0266 -0.3637,0.001 -0.6418,0.005 -0.9011,0.0102 z m 9.9878,1.2038 c -0.0218,0.1352 -0.0484,0.2622 -0.0805,0.3804 -0.0456,0.1701 -0.1029,0.3243 -0.1723,0.4627 -0.1125,0.61 -0.2821,1.4264 -0.4938,2.3949 -0.2217,1.0151 -0.4989,2.2303 -0.8101,3.5694 -0.5395,2.3213 -1.2303,5.203 -1.9316,8.125 h 0.9774 c 0.2829,0 0.5125,0.2296 0.5125,0.5125 v 0.9487 c 0,0.2832 -0.2296,0.5128 -0.5125,0.5128 h -1.1137 v 5.785 h 2.3244 l -0.0561,-0.165 c -0.1588,-0.4853 -0.2679,-0.9692 -0.2753,-1.4482 -0.0147,-0.9562 0.351,-1.745 2.0597,-5.4284 l 0.1193,-0.2574 c 1.6331,-3.5209 4.4209,-9.5306 6.0449,-13.007 l 0.1704,-0.3645 c 0.5978,-1.279 0.9255,-1.9798 1.0564,-2.3517 -0.2046,-0.0666 -0.4719,-0.1488 -0.7716,-0.2214 -0.3727,-0.0904 -0.7988,-0.1672 -1.2197,-0.1817 -0.851,-0.0292 -1.7493,0.1948 -2.5036,0.383 l -1.7453,0.4346 c -0.4175,0.1037 -0.4178,0.1037 -0.826,0.0419 l -0.003,-3e-4 c -0.163,-0.0249 -0.4102,-0.0623 -0.7498,-0.1253 z m -1.1177,-0.2333 -0.0802,-0.0184 -0.4512,-0.1083 -0.006,0.0216 c -0.0567,0.2129 -0.0862,0.4396 -0.0703,0.6366 0.009,0.1163 0.0323,0.2115 0.0726,0.2654 l 0.0175,0.0198 c 0.0326,0.0292 0.0817,0.0459 0.1358,0.0482 0.0666,0.002 0.1369,-0.0179 0.1956,-0.0629 l 0.0303,-0.0267 0.0431,-0.051 c 0.0528,-0.2971 0.0896,-0.5341 0.1128,-0.7243 z m -10.2685,-0.9428 -0.1326,0.003 c -0.0264,0.1922 -0.0167,0.4901 0.0442,0.9337 l 0.003,0.005 c 0.0491,0.0762 0.097,0.1406 0.1423,0.193 l 0.006,0.007 c 0.1083,0.1216 0.2041,0.1843 0.2835,0.2013 l 0.008,0.002 c 0.0374,0.006 0.0715,-0.002 0.0987,-0.0199 l 0.0221,-0.0156 c 0.0697,-0.0606 0.1173,-0.1672 0.1369,-0.2934 0.0227,-0.1459 0.005,-0.3078 -0.0598,-0.4558 -0.0681,-0.1553 -0.1911,-0.3013 -0.3339,-0.4161 -0.072,-0.0584 -0.146,-0.1069 -0.2175,-0.1429 z m -7.2867,0.4933 c -0.0133,-0.009 -0.019,-0.0148 -0.0249,0.002 -0.0111,0.0314 0.004,0.0121 0.0249,-0.002 z m 12.3809,30.6963 c 0.3101,-0.004 0.5907,-0.1312 0.7945,-0.335 0.207,-0.2069 0.3354,-0.4932 0.3354,-0.8096 0,-0.316 -0.1284,-0.6023 -0.3354,-0.8093 v -0.004 c -0.2046,-0.2047 -0.4906,-0.3314 -0.8093,-0.3314 -0.3186,0 -0.6049,0.1267 -0.8095,0.3314 l -0.004,0.004 c -0.2047,0.2047 -0.3314,0.491 -0.3314,0.8093 0,0.3186 0.1267,0.6049 0.3314,0.8096 h 0.004 c 0.2038,0.2038 0.4844,0.3311 0.7948,0.335 h 0.0147 z m -2.9968,0 c -0.1375,-0.3557 -0.2129,-0.7418 -0.2129,-1.1446 0,-0.8776 0.3575,-1.6747 0.9357,-2.2549 l 0.004,-0.004 c 0.5803,-0.5783 1.3774,-0.936 2.2552,-0.936 0.8782,0 1.6767,0.3586 2.257,0.938 l 0.002,-0.002 c 0.578,0.578 0.936,1.3768 0.936,2.2589 0,0.4034 -0.0751,0.7892 -0.2115,1.1446 h 1.9579 v -5.2721 h -9.8836 v 5.2721 z m 1.3243,-7.3224 3.3149,3e-4 v -5.785 h -3.3149 z m 6.5994,9.3727 h -1.7467 v 18.9383 h 1.7467 z m -3.797,0 h -1.1447 -1.1449 v 20.077 l 2.2896,0.009 z m -6.0869,0 v 18.9383 h 1.747 v -18.9383 z m 16.9393,24.2139 v 15.4604 l -4.6531,0.0179 c -0.8396,3.1997 -3.7513,5.5604 -7.2147,5.5604 -1.1407,0 -2.2212,-0.2562 -3.1878,-0.7138 -1.9684,-0.932 -3.464,-2.7005 -4.0272,-4.8466 h -4.4481 v -15.5722 c 0,0 0.3234,-2.8485 0.3234,-4.3154 0,-21.0552 -16.2159,-17.8294 -17.2755,-41.8181 -0.678,-15.3496 12.8115,-28.6149 28.6152,-28.6149 15.8034,0 28.6149,12.8114 28.6149,28.6149 0,17.621 -17.0847,25.408 -17.0847,41.8181 0,1.4995 0.451,4.4096 0.3376,4.4093 z m -138.5507,-71.3517 -4.7556,3.0934 h 4.7556 z m -8.0651,5.246 -4.4045,2.865 h 9.5089 l -4.9933,-2.865 z m -6.277,1.5228 2.3411,-1.5228 h -2.3389 z m 6.2634,-4.0739 5.8765,-3.8226 h -12.1283 l -3e-4,0.2353 z m -8.3976,-2.6252 c -0.0888,-0.2381 -0.0927,-0.5063 0.001,-0.7546 l 6e-4,-0.4428 h -3.8733 c -0.5944,0 -1.0766,-0.4819 -1.0766,-1.0763 0,-0.5944 0.4822,-1.0763 1.0766,-1.0763 h 4.2443 l 8.3302,-19.1528 c 0.1105,-0.2501 0.3149,-0.459 0.5887,-0.5675 0.5502,-0.2183 1.1736,0.0507 1.3919,0.6012 l 7.5948,19.1191 h 4.1536 c 0.5945,0 1.0763,0.4819 1.0763,1.0763 0,0.5944 -0.4818,1.0763 -1.0763,1.0763 h -3.8026 v 4.2211 h 0.0425 c 0.1358,-0.3101 0.3285,-0.5907 0.5649,-0.8286 l 0.007,-0.007 c 0.4913,-0.4895 1.1659,-0.792 1.9075,-0.792 0.7041,0 1.3487,0.2733 1.8329,0.7206 l 0.0788,0.0714 c 0.4807,0.4808 0.7817,1.1424 0.7917,1.8743 0.2194,-0.0581 0.4498,-0.089 0.6868,-0.089 0.7041,0 1.3487,0.2733 1.8329,0.7206 l 0.0788,0.0714 c 0.489,0.489 0.792,1.165 0.792,1.9117 0,0.2959 -0.0476,0.5808 -0.1358,0.8475 0.3526,-0.2857 0.8014,-0.4572 1.2903,-0.4572 1.1322,0 2.0503,0.9182 2.0503,2.0503 v 6.0508 l 32.9341,-15.4304 c 0.5366,-0.2505 1.1747,-0.0192 1.4255,0.5174 0.2506,0.5363 0.0193,1.1744 -0.517,1.4252 l -33.0353,15.4778 7.4056,5.8716 24.751,-10.7254 c 0.5431,-0.2344 1.1741,0.0162 1.4085,0.5593 0.2341,0.5434 -0.0162,1.1744 -0.5593,1.4085 l -23.6956,10.2679 6.3836,5.0619 16.4795,-6.827 c 0.5479,-0.2251 1.1749,0.0366 1.4,0.5845 0.2251,0.548 -0.0363,1.175 -0.5845,1.4001 l -15.3709,6.3677 22.2098,17.6105 c 0.4643,0.3691 0.5417,1.0452 0.1726,1.5095 -0.3694,0.4643 -1.0454,0.5417 -1.5097,0.1726 l -23.1443,-18.3515 -6.9551,2.8814 32.6282,25.9024 c 0.4643,0.3691 0.5417,1.0452 0.1723,1.5095 -0.3691,0.4643 -1.0451,0.5417 -1.5094,0.1723 l -33.562,-26.6434 -6.9276,2.8698 v 1.2623 l 41.211,32.6724 c 0.4643,0.3694 0.5417,1.0451 0.1723,1.5097 -0.3691,0.4644 -1.0451,0.5415 -1.5094,0.1724 l -39.9371,-31.6627 c -0.2253,0.8872 -1.0298,1.5434 -1.9871,1.5434 -1.1321,0 -2.0503,-0.9178 -2.0503,-2.05 v -2.6464 c -0.0473,-0.066 -0.0875,-0.1386 -0.1199,-0.2171 -0.1457,-0.3544 -0.0876,-0.7416 0.1199,-1.0321 v -2.2153 h -7.7195 v 7.1892 l 0.3092,3.3219 c 0.1307,0.2523 0.1519,0.5392 0.0746,0.7991 l 5.8399,62.7166 c 0.0408,0.265 -0.0167,0.5454 -0.1831,0.782 -0.3413,0.4853 -1.0117,0.6018 -1.497,0.2606 l -14.042,-9.8972 -14.5488,10.4355 c -0.4833,0.3458 -1.1554,0.2349 -1.5012,-0.2481 -0.1744,-0.2435 -0.2325,-0.5349 -0.1857,-0.8084 l 2.1064,-19.9307 c 0.002,-0.053 0.007,-0.1052 0.0168,-0.1562 l 1.65,-15.6126 c 0.002,-0.0539 0.007,-0.1066 0.0167,-0.1585 l 1.5262,-14.4408 c 0.002,-0.0533 0.007,-0.1055 0.0167,-0.1565 l 1.7076,-16.1578 0.0116,-7.9381 h -7.7357 v 6.1109 c 0,1.1322 -0.9182,2.05 -2.0503,2.05 -1.1322,0 -2.0503,-0.9178 -2.0503,-2.05 v -0.2642 l -24.0066,19.1251 c -0.4643,0.3694 -1.1404,0.292 -1.5095,-0.1723 -0.3693,-0.4644 -0.2919,-1.1404 0.1724,-1.5098 l 25.3006,-20.156 -7.9517,-3.2941 -18.0899,14.4113 c -0.4643,0.3694 -1.1404,0.292 -1.5097,-0.1723 -0.3691,-0.4644 -0.292,-1.1404 0.1726,-1.5098 l 17.1581,-13.6692 -6.9279,-2.8701 -11.3839,9.0646 c -0.4643,0.3691 -1.1404,0.292 -1.5095,-0.1723 -0.3693,-0.4646 -0.2919,-1.1404 0.1724,-1.5097 l 10.4522,-8.3226 -15.5138,-6.4269 c -0.5479,-0.2251 -0.8095,-0.8521 -0.5845,-1.4001 0.2251,-0.5479 0.8521,-0.8096 1.4004,-0.5845 l 16.6164,6.8837 6.364,-5.0672 -23.813,-10.3193 c -0.5434,-0.2341 -0.7937,-0.8651 -0.5593,-1.4085 0.2345,-0.5431 0.8652,-0.7937 1.4086,-0.5593 l 24.8635,10.7742 7.3828,-5.8785 -33.1251,-15.5197 c -0.5363,-0.2508 -0.7679,-0.8889 -0.517,-1.4252 0.2506,-0.5366 0.8889,-0.7679 1.4253,-0.5174 l 34.0888,15.9716 0.0233,-0.0184 v -6.5736 c 0,-1.1321 0.9181,-2.0503 2.0503,-2.0503 0.2894,0 0.5646,0.0601 0.8141,0.1681 -0.0383,-0.1803 -0.0587,-0.3671 -0.0587,-0.5584 0,-0.7416 0.3025,-1.4162 0.792,-1.9075 l 0.007,-0.007 c 0.4913,-0.4881 1.1645,-0.7897 1.9049,-0.7897 0.2373,0 0.4674,0.0309 0.6871,0.089 0.01,-0.7268 0.3101,-1.387 0.7917,-1.87 l 0.007,-0.007 c 0.491,-0.4882 1.1642,-0.7898 1.9049,-0.7898 0.7421,0 1.4179,0.3033 1.9094,0.7943 l 0.002,-0.002 c 0.2384,0.2384 0.4329,0.5216 0.5692,0.8354 h 0.504 z m 12.844,5.1763 3.6323,2.0841 v -2.0841 z m -8.0733,-2.1526 -2.6289,-1.5083 -0.002,1.5083 z m 39.9084,27.5199 -6.3485,-5.0338 -6.8406,2.9642 6.2354,4.9501 z m -8.2534,-6.5441 -5.9763,-4.7387 v 7.3284 z m -0.9711,10.3655 -5.0052,-3.9734 v 6.0469 z m -9.1058,-4.5862 c -0.0433,-0.061 -0.0807,-0.127 -0.1116,-0.1982 -0.154,-0.3571 -0.0987,-0.752 0.1116,-1.0471 v -5.591 h -7.7195 v 11.0021 h 7.7195 z m 0,-11.2901 c -0.0374,-0.0525 -0.0705,-0.1089 -0.0989,-0.1692 -0.1698,-0.3632 -0.1185,-0.7731 0.0989,-1.0778 v -7.0475 h -7.7195 v 5.2977 5.2977 h 7.7195 z M 272.789,370.5403 c -0.007,0.4828 -0.1403,0.9355 -0.3688,1.3258 h 4.0334 l 0.004,-2.865 h -0.5012 c -0.1366,0.3141 -0.3305,0.597 -0.5689,0.8354 -0.489,0.489 -1.1656,0.792 -1.9117,0.792 -0.2375,0 -0.4677,-0.0306 -0.6871,-0.0882 z m 25.8854,1.3258 c -0.2304,-0.3915 -0.3648,-0.8439 -0.3716,-1.3258 -0.2194,0.0576 -0.4496,0.0882 -0.6868,0.0882 -0.7467,0 -1.4227,-0.303 -1.9117,-0.792 l 0.002,-0.002 c -0.2384,-0.2386 -0.4326,-0.521 -0.5692,-0.8331 h -0.0428 v 2.865 z m 1.9381,10.9899 c -0.4893,0.489 -1.1656,0.792 -1.9117,0.792 -0.7467,0 -1.4227,-0.303 -1.9117,-0.792 l 0.002,-0.002 c -0.491,-0.4916 -0.7943,-1.1673 -0.7943,-1.9095 0,-0.7404 0.3016,-1.4139 0.7897,-1.9048 l 0.007,-0.007 c 0.4912,-0.4896 1.1656,-0.792 1.9074,-0.792 0.7041,0 1.3487,0.2732 1.8329,0.7208 l 0.0788,0.0712 c 0.4889,0.4889 0.792,1.1653 0.792,1.9116 0,0.7464 -0.3031,1.4228 -0.792,1.9117 z m 0,12.8838 c -0.4893,0.489 -1.1656,0.792 -1.9117,0.792 -0.7467,0 -1.4227,-0.303 -1.9117,-0.792 l 0.002,-0.002 c -0.491,-0.4915 -0.7943,-1.1673 -0.7943,-1.9094 0,-0.7407 0.3016,-1.4139 0.7897,-1.9049 l 0.007,-0.007 c 0.4912,-0.4895 1.1656,-0.792 1.9074,-0.792 0.7041,0 1.3487,0.2733 1.8329,0.7206 l 0.0788,0.0714 c 0.4889,0.489 0.792,1.165 0.792,1.9117 0,0.7464 -0.3031,1.4227 -0.792,1.9117 z m -25.6315,0 c -0.4889,0.489 -1.1656,0.792 -1.9116,0.792 -0.7467,0 -1.4228,-0.303 -1.9117,-0.792 l 0.002,-0.002 c -0.4909,-0.4915 -0.7942,-1.1673 -0.7942,-1.9094 0,-0.7407 0.3016,-1.4139 0.7897,-1.9049 l 0.007,-0.007 c 0.4913,-0.4895 1.1656,-0.792 1.9075,-0.792 0.7041,0 1.3487,0.2733 1.8328,0.7206 l 0.0788,0.0714 c 0.489,0.489 0.792,1.165 0.792,1.9117 0,0.7464 -0.303,1.4227 -0.792,1.9117 z m 0,-12.6125 c -0.4889,0.489 -1.1656,0.792 -1.9116,0.792 -0.7467,0 -1.4228,-0.303 -1.9117,-0.792 l 0.002,-0.002 c -0.4909,-0.4915 -0.7942,-1.1673 -0.7942,-1.9094 0,-0.7404 0.3016,-1.4139 0.7897,-1.9049 l 0.007,-0.007 c 0.4913,-0.4895 1.1656,-0.792 1.9075,-0.792 0.7041,0 1.3487,0.2733 1.8328,0.7206 l 0.0788,0.0714 c 0.489,0.489 0.792,1.1654 0.792,1.9117 0,0.7464 -0.303,1.4227 -0.792,1.9117 z m 1.461,-3.4996 c -0.0297,-0.0984 -0.0456,-0.2027 -0.0456,-0.311 0,-0.1091 0.0164,-0.2146 0.0467,-0.3141 l 0.007,-4.9836 h -7.7734 v 10.5954 h 7.7581 z m 2.1461,-1.3873 h 4.3336 l -4.3285,-3.4416 z m 10.1778,0 h 4.1757 v -3.2576 z m 4.1757,2.1526 h -3.8596 l 3.8596,3.0691 z m -10.4215,0 h -3.9351 l -0.005,3.0733 z m 3.2961,0.1488 -5.2203,4.0726 h 10.3425 z m 0.0159,-2.7329 4.858,-3.7899 h -9.6248 z m 7.1095,10.0823 -5.5394,4.3217 5.5394,4.4045 z m -7.2822,5.6812 -5.3798,4.197 h 10.6582 z m -7.0979,2.8171 5.3708,-4.1902 -5.3583,-4.2605 z m 7.1135,-5.5497 5.2203,-4.0725 h -10.3422 z m 7.2666,10.3672 -5.5261,3.8599 5.7274,4.2177 -0.1928,-2.0696 -0.004,-0.097 h -0.004 z m -7.3851,5.1587 -6.5469,4.5729 6.7374,4.8537 6.4179,-4.5603 z m -7.0869,2.3349 5.2643,-3.6771 -5.1795,-3.814 -0.01,6.7224 -0.005,0.1091 z m 7.1235,-4.9756 5.4439,-3.8027 h -10.6078 z m 7.8891,9.2046 -5.8946,4.1888 6.7368,4.8532 z m -7.742,5.5012 -6.6197,4.7038 h 13.1493 z m -8.6714,3.528 6.8309,-4.8537 -5.8711,-4.2296 z m -12.4926,-21.2077 v -7.3587 l -6.0769,4.8413 z m 0,-10.106 v -8.3821 l -7.0441,5.6089 6.817,2.954 z m 4.1006,-3.8778 v 11.0021 h 7.7389 l 0.0161,-11.0021 z m 10.5023,-26.2925 h 13.258 l -6.3289,-15.9316 z m -23.5468,28.91 -6.3289,5.0391 6.927,2.8698 6.2195,-4.9546 z m 39.0782,36.7327 -7.1907,4.9074 8.1723,5.6375 z m -9.0902,6.2042 -7.9285,5.4111 h 15.7725 z m -10.1001,4.2923 8.2049,-5.5999 -7.096,-4.8949 z m 10.1047,-6.8965 6.4913,-4.4302 h -12.9138 z m 10.4374,10.9208 -8.5703,5.5457 9.6735,6.3037 z m -10.5426,6.8221 -9.3388,6.0427 h 18.6118 z m -11.6737,4.9975 9.7053,-6.2801 -8.4594,-5.5126 z m 11.6779,-7.5566 7.7517,-5.0159 h -15.4491 z m 9.5395,10.7544 h -19.1288 l 9.648,6.8003 z m -23.3232,16.7292 11.9939,-8.6029 -10.3167,-7.2714 z m 223.0566,38.1033 c -1.6966,0.4476 -3.4765,0.6866 -5.3099,0.6866 H 219.1674 c -1.8082,0 -3.5645,-0.2322 -5.2401,-0.6679 l -35.7239,80.6519 c 0.5746,0.6324 1.4536,1.2127 2.4789,1.6671 0.9788,0.4334 1.9808,0.6854 2.8585,0.6854 h 341.5728 c 0.9144,0 1.9264,-0.2503 2.8868,-0.6797 1.0009,-0.4476 1.8717,-1.0316 2.4619,-1.6799 z M 489.4869,320.097 H 219.1674 c -1.6492,0 -3.1544,0.6803 -4.25,1.7756 -1.0953,1.0956 -1.7756,2.6008 -1.7756,4.25 V 490.288 c 0,1.6492 0.6806,3.1544 1.7756,4.2497 1.0956,1.0953 2.6008,1.7756 4.25,1.7756 h 270.3195 c 1.6492,0 3.1544,-0.6803 4.25,-1.7756 1.095,-1.0953 1.7756,-2.6005 1.7756,-4.2497 V 326.1226 c 0,-1.6492 -0.6803,-3.1544 -1.7756,-4.25 -1.0956,-1.0953 -2.6008,-1.7756 -4.25,-1.7756 z"
       style="fill:#c55b3b;fill-rule:evenodd"
       id="path25" />
  </g>
</svg>
